# xmcd CD Database Entry
#
# Track frame offsets:
# 150
# 9852
# 18617
# 31932
# 44632
# 54697
# 64800
# 73922
# 83647
# 93715
# 104867
# 114762
# 125662
# 138032
#
# Disc length: 2044 seconds
#
# Revision: 3
# Processed by: cddbd v1.4b41PL2 Copyright (c) Steve Scherf et al.
# Submitted via: tcd 2.0b
#
DISCID=c307fa0e
DTITLE=Onkalo-orkesteri - JummiJammi
DYEAR=1900
DGENRE=
TTITLE0=Jummi Jammi!
TTITLE1=Törkymöykky
TTITLE2=Tyrannosaurus rex
TTITLE3=Kalavale
TTITLE4=Hesseli kissa
TTITLE5=Kapteeni Koukku
TTITLE6=Kavereita ollaan
TTITLE7=Uni-laulu
TTITLE8=Pingviinitanssi
TTITLE9=Intiaanin sotahuuto
TTITLE10=Pötkötellään
TTITLE11=Helikopteri
TTITLE12=Pitkätukkarockpoppoo
TTITLE13=Romulus ja Remus
EXTD=
EXTT0=
EXTT1=
EXTT2=
EXTT3=
EXTT4=
EXTT5=
EXTT6=
EXTT7=
EXTT8=
EXTT9=
EXTT10=
EXTT11=
EXTT12=
EXTT13=
PLAYORDER=
